<?xml version="1.0" encoding="UTF-8"?>
<svg id="Ebene_1" data-name="Ebene 1" xmlns="http://www.w3.org/2000/svg" viewBox="0 0 755.71 681.84">
  <defs>
    <style>
      .cls-1 {
        fill: #224c9c;
      }
    </style>
  </defs>
  <ellipse class="cls-1" cx="359.66" cy="248.26" rx="8.48" ry="8.08"/>
  <path class="cls-1" d="M78.63,417.46c37.13-63.72,98.95-90.85,174.75-93.02,6.46,20.86,5.78,31.93.18,54.38-.78,3.13-3.7,12.91-3.71,16.55,56.38-28.34,110.88-56.79,166.04-88.11-13.6.66-25.03,5.32-36.65,10.34l-59.29,25.63c-13.91,6.01-26.93,12.28-41.8,17.65,1.3-22.19,1.25-57.21-16.57-61.81-21.69-5.59-45.03-3.88-67.73-1.74-47.15,4.44-91.38,22.55-126.25,53.14C25.9,387.05-.13,437.13,0,491.75c.16,68.42,45.22,129.05,108.02,160.87,45.93,23.27,96.99,31.89,148.86,28.51,70.08-4.57,134.04-32.36,181.34-81.95,19.45-21.22,35.9-43.27,49.72-68.67,19.54-35.92,36.51-72.42,52.16-110.54l-202.73,94.35c19.96,5.74,39.13,10.62,58.91,11.06l28.09.62c-17.04,34.64-43.39,63.07-77.98,82.14-79.51,43.84-189.87,35.89-251.55-30.56-42.51-45.79-46.07-108.86-16.2-160.11Z"/>
  <path class="cls-1" d="M442.7,291.82c41.62-26.84,76.55-49.47,126.96-53.69l85.06-7.12,61.31-1.95c11.97-.82,28.45-.3,39.69-6.81l-76.26-1.78-51.69-1.38-27.13-1.42-37.2-1.53c-51.38-3.89-100.91-13.53-150.34-26.8l-79.32-21.29-35.26-38.72c-20.73-22.76-43.54-42.77-66.57-63.46l-33.07-29.73-22.74-20.22c-6.27-5.57-12.41-10.54-19.75-15.91,5.72,21.13,12.06,39.4,13.65,60.11,4.5,58.68-24.42,102.75-65.72,143.56C51.73,255.62,11.57,322.32,1.09,396.02l18.04-30.82c50.74-77.6,131.35-120.85,221.91-147.12,55.34-16.05,90.9-10.95,143.72,7.74,13.11,4.64,25.48,9.5,39.12,12.5,10.9,2.4,23.75-.02,34.77-.66l23.88-2.78,28.85-3.29,29-3.11c-23.98,10.65-31.11,14.42-54.12,18.75-36.13,6.8-68.16,19.83-104.13,33.02l33.65,4.77c9.4,1.33,18.47,3.86,26.93,6.8Z"/>
</svg>